<svg xmlns="http://www.w3.org/2000/svg" viewBox="0 0 16 16"><g fill="none" stroke="#000" stroke-linecap="round" stroke-linejoin="round" stroke-miterlimit="10"><path d="M7.05 9.86c-.3-.92-.61-1.89-.91-2.81.91-.3 1.89-.62 2.81-.91l.91 2.81-2.81.91z"/><path d="M7.88 12.41v-.01c.91-.29 1.89-.61 2.81-.91l.45 1.39c.24.66.95 1.02 1.63.83.71-.21 1.14-.96.91-1.66 0 0-.18-.54-.45-1.38.82-.27 1.35-.44 1.35-.44.7-.23 1.08-.98.85-1.69-.22-.7-.98-1.08-1.68-.85l-1.34.44-.92-2.82c.82-.27 1.35-.44 1.35-.44.7-.22 1.08-.98.85-1.68a1.33 1.33 0 0 0-1.68-.86l-1.34.44c-.27-.82-.44-1.35-.44-1.35C10 .72 9.25.34 8.54.57c-.7.22-1.08.98-.85 1.68l.44 1.34-2.82.92c-.27-.82-.44-1.35-.44-1.35-.22-.7-.98-1.08-1.68-.85-.7.22-1.09.98-.86 1.68l.44 1.35-1.39.45c-.65.23-1.02.94-.83 1.62.21.71.96 1.14 1.66.92 0 0 .54-.18 1.38-.45l.92 2.81-1.39.45c-.66.24-1.02.95-.83 1.63.21.71.96 1.14 1.66.91 0 0 .55-.18 1.39-.45l.45 1.39c.23.65.94 1.02 1.62.83.71-.21 1.14-.96.92-1.66 0 0-.18-.54-.45-1.38v-.01"/></g></svg>